:SAMPLES-PER-SECOND 30
:FULLY-SPECIFIED
:DEGREES
109
root  -25.9952 39.5966 -3.96381 -122.701 -82.765 113.173
RightUpLeg  -8.72803 -0.0813327 -10.6757
RightLeg  65.9347 -0.967592 -3.02438
RightFoot  9.80483 -1.20407 6.81732
RightToes  1.74622e-010 0 -3.6325e-017
Spine  5.56072 2.12353 1.82393
Spine1  11.0813 4.28689 -7.79209
HEad  -12.4295 3.46413 -8.54039
LeftShoulder1  8.91905 -12.2559 -49.4041
LeftArm  -4.57346 19.0683 -25.9021
LeftForeArm  20.6278 -18.5943 -4.36237
LeftHand  -0.244104 0.0205437 5.32207
RightShoulder  7.71209 11.2843 45.5691
RightArm  -4.65617 -3.74549 33.3482
RightForeArm  20.2496 -1.04009 6.62587
RightHand  -0.69335 0.651567 -13.4031
LeftUpLeg  -6.90162 14.0412 -10.6848
LeftLeg  17.5577 9.3715 1.92276
LeftFoot  -4.301 -0.426819 7.33254
LeftToes  1.00041e-010 1.90862e-010 2.54823e-011
110
root  -27.2256 39.8498 -3.92859 -111.135 -84.236 101.342
RightUpLeg  -12.9283 -0.991271 -9.58038
RightLeg  63.279 -1.61154 -4.03594
RightFoot  7.83722 -0.978345 6.10294
RightToes  1.74622e-010 0 -3.6325e-017
Spine  6.60239 1.04871 1.70543
Spine1  10.7524 2.76063 -6.60283
HEad  -13.0361 3.91137 -8.34743
LeftShoulder1  8.84623 -12.1764 -49.2485
LeftArm  -4.1419 17.6285 -25.7319
LeftForeArm  21.1067 -23.8278 -3.97512
LeftHand  -0.244104 0.0205437 5.32207
RightShoulder  7.48465 10.9929 45.0953
RightArm  -2.97427 -8.28381 33.0354
RightForeArm  18.8138 3.13858 7.30245
RightHand  -0.680005 0.689992 -13.0624
LeftUpLeg  -3.65079 11.7114 -9.18238
LeftLeg  16.4952 9.95828 0.906812
LeftFoot  -6.02673 -0.269969 6.6073
LeftToes  1.00041e-010 1.90862e-010 2.54823e-011
111
root  -28.4737 40.0723 -3.90677 -94.9391 -85.0452 84.9031
RightUpLeg  -16.0721 -1.97899 -8.79665
RightLeg  57.5599 -2.68184 -4.98408
RightFoot  6.4516 -0.731025 4.94669
RightToes  1.74622e-010 0 -3.6325e-017
Spine  7.58682 0.25116 1.25136
Spine1  10.1777 1.47724 -5.23973
HEad  -13.2027 4.14419 -7.90705
LeftShoulder1  8.74061 -12.0612 -49.0199
LeftArm  -6.28839 16.6405 -25.3997
LeftForeArm  24.643 -29.5493 -5.05322
LeftHand  -0.244104 0.0205437 5.32207
RightShoulder  7.1844 10.6688 44.2424
RightArm  -0.473005 -13.1082 32.5287
RightForeArm  14.6107 8.14491 8.02537
RightHand  -0.620524 0.610061 -12.0934
LeftUpLeg  -0.4657 9.20242 -7.97498
LeftLeg  15.1516 10.698 -0.341855
LeftFoot  -7.01898 -0.200539 6.43965
LeftToes  1.00041e-010 1.90862e-010 2.54823e-011
112
root  -29.7471 40.2104 -3.90543 -76.1054 -85.0023 66.0056
RightUpLeg  -18.1093 -3.53008 -8.53096
RightLeg  49.0303 -3.39083 -4.55407
RightFoot  4.68525 -0.620157 4.64462
RightToes  1.74622e-010 0 -3.6325e-017
Spine  8.04918 -0.365126 0.501862
Spine1  9.82631 0.418708 -3.95234
HEad  -13.1574 4.02009 -7.27428
LeftShoulder1  8.65151 -11.9625 -48.8287
LeftArm  -7.81689 15.8499 -24.9457
LeftForeArm  27.2595 -35.4834 -6.37978
LeftHand  -0.244104 0.0205437 5.32207
RightShoulder  6.93418 10.3808 43.5536
RightArm  4.27195 -17.3364 31.8494
RightForeArm  8.76817 12.7919 7.79303
RightHand  -0.614569 0.685071 -11.8309
LeftUpLeg  2.21368 7.35442 -7.3342
LeftLeg  14.269 10.9237 -1.21576
LeftFoot  -8.07081 -0.137713 6.51358
LeftToes  1.00041e-010 1.90862e-010 2.54823e-011
113
root  -31.0726 40.1534 -3.942 -61.6108 -84.121 51.7049
RightUpLeg  -19.0966 -5.61201 -8.78397
RightLeg  38.3023 -2.8895 -2.73087
RightFoot  3.38674 -0.700393 5.59128
RightToes  1.74622e-010 0 -3.6325e-017
Spine  7.81027 -0.80419 -0.647148
Spine1  9.82602 -0.381219 -3.09145
HEad  -13.0153 3.5181 -6.58271
LeftShoulder1  8.60144 -11.9148 -48.6954
LeftArm  -8.8808 14.9514 -24.4208
LeftForeArm  29.1575 -40.8264 -7.77955
LeftHand  -0.244104 0.0205437 5.32207
RightShoulder  6.72494 10.121 43.0147
RightArm  8.28573 -20.6618 31.2681
RightForeArm  4.77069 15.9152 6.94097
RightHand  -0.702132 1.07408 -12.7112
LeftUpLeg  3.93125 6.83199 -7.19538
LeftLeg  15.0463 10.0567 -1.39721
LeftFoot  -10.3952 0.0100301 6.24728
LeftToes  1.00041e-010 1.90862e-010 2.54823e-011
114
root  -32.4519 40.0152 -4.00873 -54.8433 -82.9802 45.1653
RightUpLeg  -18.9269 -7.72161 -9.08058
RightLeg  25.9749 -1.52592 -1.09696
RightFoot  3.08581 -0.794144 6.43135
RightToes  1.74622e-010 0 -3.6325e-017
Spine  7.25119 -1.03157 -1.96218
Spine1  9.97584 -0.882575 -2.22887
HEad  -12.7417 2.82714 -5.92998
LeftShoulder1  8.5579 -11.8831 -48.5475
LeftArm  -9.67386 13.9522 -24.0337
LeftForeArm  30.7067 -45.0312 -9.05967
LeftHand  -0.244104 0.0205437 5.32207
RightShoulder  6.55539 9.92792 42.5028
RightArm  8.99723 -22.9638 30.9095
RightForeArm  4.38597 16.5383 6.68856
RightHand  -0.780522 1.38998 -13.4894
LeftUpLeg  5.60297 7.07274 -7.17889
LeftLeg  16.0422 8.62065 -1.43546
LeftFoot  -12.8633 0.15646 5.89497
LeftToes  1.00041e-010 1.90862e-010 2.54823e-011
115
root  -33.8311 39.9195 -4.08337 -51.3906 -81.8242 41.7782
RightUpLeg  -17.5323 -9.4535 -9.47998
RightLeg  12.5552 -0.530531 0.0172949
RightFoot  3.26719 -0.840243 6.71825
RightToes  1.74622e-010 0 -3.6325e-017
Spine  6.81095 -1.15834 -3.13905
Spine1  10.1908 -1.27165 -1.07711
HEad  -12.3186 2.10586 -5.2936
LeftShoulder1  8.51391 -11.8528 -48.3921
LeftArm  -10.2228 13.0613 -23.7713
LeftForeArm  31.9295 -48.0652 -10.1103
LeftHand  -0.244104 0.0205437 5.32207
RightShoulder  6.4566 9.82134 42.1763
RightArm  6.19621 -24.202 30.6143
RightForeArm  7.47656 14.4686 7.23844
RightHand  -0.753313 1.30337 -13.1755
LeftUpLeg  7.90347 7.373 -7.13666
LeftLeg  15.987 7.15861 -1.58891
LeftFoot  -14.3819 0.243588 5.88658
LeftToes  1.00041e-010 1.90862e-010 2.54823e-011
116
root  -35.2561 39.7563 -4.16204 -48.5848 -80.4948 39.0091
RightUpLeg  -15.6013 -9.52839 -10.8445
RightLeg  0.684748 -1.71864 1.60468
RightFoot  2.88046 -0.894118 7.33331
RightToes  1.74622e-010 0 -3.6325e-017
Spine  6.192 -1.36325 -4.06263
Spine1  10.481 -1.65101 -0.301722
HEad  -11.7778 1.32875 -4.75297
LeftShoulder1  8.51402 -11.8642 -48.3564
LeftArm  -10.5112 12.3531 -23.4825
LeftForeArm  32.8122 -49.9526 -10.8241
LeftHand  -0.244104 0.0205437 5.32207
RightShoulder  6.42236 9.7545 42.1631
RightArm  1.00501 -24.6072 30.2722
RightForeArm  12.7461 10.6417 7.71025
RightHand  -0.660445 0.884835 -12.3184
LeftUpLeg  10.2569 7.65418 -7.08922
LeftLeg  16.1123 5.64412 -1.57084
LeftFoot  -16.2126 0.339472 5.71825
LeftToes  1.00041e-010 1.90862e-010 2.54823e-011
117
root  -36.7761 39.458 -4.24891 -46.4053 -79.3291 37.0881
RightUpLeg  -15.0245 -10.3013 -11.6957
RightLeg  -4.65816 -2.62821 2.88738
RightFoot  0.916655 -0.886731 8.28534
RightToes  1.74622e-010 0 -3.6325e-017
Spine  5.00124 -1.59846 -4.46709
Spine1  10.7892 -1.87514 -0.204411
HEad  -11.081 0.511772 -4.53315
LeftShoulder1  8.56434 -11.9203 -48.4666
LeftArm  -10.6807 11.8662 -23.2718
LeftForeArm  33.4385 -50.5147 -11.0233
LeftHand  -0.244104 0.0205437 5.32207
RightShoulder  6.42118 9.70792 42.3136
RightArm  -3.41683 -24.6275 29.9802
RightForeArm  16.3936 6.93822 7.17354
RightHand  -0.585886 0.387091 -11.8487
LeftUpLeg  12.1715 8.1544 -6.80215
LeftLeg  17.1299 3.96842 -1.29949
LeftFoot  -19.004 0.430099 4.73344
LeftToes  1.00041e-010 1.90862e-010 2.54823e-011
118
root  -38.2839 39.1933 -4.34355 -44.3941 -78.7971 35.5989
RightUpLeg  -15.5452 -10.6471 -11.5681
RightLeg  -3.79874 -4.72366 3.35481
RightFoot  0.00803311 -0.786066 7.89737
RightToes  1.74622e-010 0 -3.6325e-017
Spine  3.74257 -1.70887 -4.12052
Spine1  11.0659 -2.00528 -0.00874561
HEad  -10.2391 -0.116419 -4.67633
LeftShoulder1  8.61775 -11.9651 -48.6289
LeftArm  -10.8566 11.8736 -23.2691
LeftForeArm  33.7092 -49.8595 -10.7206
LeftHand  -0.244104 0.0205437 5.32207
RightShoulder  6.41267 9.6679 42.3909
RightArm  -5.92425 -24.5555 29.6937
RightForeArm  16.8148 4.55962 6.21822
RightHand  -0.553734 0.0458899 -11.8725
LeftUpLeg  13.8896 8.81626 -6.0934
LeftLeg  17.772 2.37544 -0.848973
LeftFoot  -20.9736 0.410954 3.36493
LeftToes  1.00041e-010 1.90862e-010 2.54823e-011
119
root  -39.7945 39.0056 -4.44844 -41.3615 -78.6056 32.9103
RightUpLeg  -16.0358 -10.5564 -10.8667
RightLeg  -0.243728 -7.44216 3.09019
RightFoot  3.41579 -0.676386 5.49792
RightToes  1.74622e-010 0 -3.6325e-017
Spine  2.92517 -1.90986 -3.25039
Spine1  11.132 -2.30152 0.360173
HEad  -9.4982 -0.347466 -4.95953
LeftShoulder1  8.67911 -11.976 -48.9421
LeftArm  -10.8351 12.6162 -23.1369
LeftForeArm  33.4826 -48.5305 -10.1847
LeftHand  -0.244104 0.0205437 5.32207
RightShoulder  6.32671 9.5309 42.2529
RightArm  -7.55699 -24.396 29.3757
RightForeArm  15.3832 3.71172 5.74803
RightHand  -0.560494 -0.0184181 -12.1521
LeftUpLeg  15.6809 9.14109 -5.03636
LeftLeg  18.3408 1.26403 -0.141207
LeftFoot  -21.7212 0.3123 2.00498
LeftToes  1.00041e-010 1.90862e-010 2.54823e-011
